# xmcd
#
# Track frame offsets: 
#        150
#        3940
#        18263
#        28772
#        40989
#        54393
#        66111
#        76692
#        87124
#        99217
#        122695
#        133282
#        152812
#        170019
#        204569
#        220420
#
# Disc length: 3332 seconds
#
# Revision: 0
# Processed by: cddbd v1.5.2PL0 Copyright (c) Steve Scherf et al.
# Submitted via: ExactAudioCopy v0.99pb5
#
DISCID=cd0d0210
DTITLE=The Monkees  - The Monkees In Phoenix, AZ - Disc 2 (Live at The
DTITLE=Coliseum ~ January 21, 1967)
DYEAR=1900
DGENRE=
TTITLE0=Intro and Crowd Noise
TTITLE1=Last Train To Clarksville
TTITLE2=She's So Far Out She's In
TTITLE3=You Just May Be The One
TTITLE4=I Wanna Be Free
TTITLE5=Take A Giant Step
TTITLE6=Sweet Young Thing
TTITLE7=Papa Gene's Blues
TTITLE8=I Can't Get Her Off My Mind
TTITLE9=Mary Mary
TTITLE10=Cripple Creek
TTITLE11=You Can't Judge A Book By Its Cover
TTITLE12=Gonna Build A Mountain
TTITLE13=I Got A Woman
TTITLE14=I'm A Believer
TTITLE15=(I'm Not Your) Steppin' Stone
EXTD=
EXTT0=
EXTT1=
EXTT2=
EXTT3=
EXTT4=
EXTT5=
EXTT6=
EXTT7=
EXTT8=
EXTT9=
EXTT10=
EXTT11=
EXTT12=
EXTT13=
EXTT14=
EXTT15=
PLAYORDER=
